<svg width="256" height="256" viewBox="0 0 256 256" xmlns="http://www.w3.org/2000/svg">
  <defs>
    <linearGradient id="bgGradient" x1="0%" y1="0%" x2="100%" y2="100%">
      <stop offset="0%" style="stop-color:#0a0a0a;stop-opacity:1" />
      <stop offset="100%" style="stop-color:#1a1a1a;stop-opacity:1" />
    </linearGradient>
    <linearGradient id="iconGradient" x1="0%" y1="0%" x2="100%" y2="100%">
      <stop offset="0%" style="stop-color:#00d4ff;stop-opacity:1" />
      <stop offset="50%" style="stop-color:#00ff41;stop-opacity:1" />
      <stop offset="100%" style="stop-color:#ff6600;stop-opacity:1" />
    </linearGradient>
  </defs>
  
  <!-- Background -->
  <rect width="256" height="256" fill="url(#bgGradient)" rx="32"/>
  
  <!-- Grid Pattern -->
  <defs>
    <pattern id="grid" width="20" height="20" patternUnits="userSpaceOnUse">
      <path d="M 20 0 L 0 0 0 20" fill="none" stroke="#00d4ff" stroke-width="0.5" opacity="0.3"/>
    </pattern>
  </defs>
  <rect width="256" height="256" fill="url(#grid)" rx="32"/>
  
  <!-- Main Icon - Wrench/Tool -->
  <g transform="translate(128, 128)">
    <!-- Wrench Body -->
    <rect x="-60" y="-8" width="120" height="16" fill="url(#iconGradient)" rx="8"/>
    
    <!-- Wrench Head -->
    <circle cx="-60" cy="0" r="20" fill="none" stroke="url(#iconGradient)" stroke-width="6"/>
    <circle cx="-60" cy="0" r="12" fill="none" stroke="url(#iconGradient)" stroke-width="3"/>
    
    <!-- Wrench Jaw -->
    <rect x="40" y="-12" width="40" height="8" fill="url(#iconGradient)" rx="4"/>
    <rect x="40" y="4" width="40" height="8" fill="url(#iconGradient)" rx="4"/>
    
    <!-- Tech Elements -->
    <circle cx="-20" cy="0" r="3" fill="#00ff41"/>
    <circle cx="0" cy="0" r="3" fill="#00d4ff"/>
    <circle cx="20" cy="0" r="3" fill="#ff6600"/>
    
    <!-- Corner Accents -->
    <rect x="-80" y="-80" width="20" height="3" fill="#00d4ff" opacity="0.8"/>
    <rect x="-80" y="-80" width="3" height="20" fill="#00d4ff" opacity="0.8"/>
    
    <rect x="60" y="-80" width="20" height="3" fill="#00ff41" opacity="0.8"/>
    <rect x="77" y="-80" width="3" height="20" fill="#00ff41" opacity="0.8"/>
    
    <rect x="-80" y="60" width="20" height="3" fill="#ff6600" opacity="0.8"/>
    <rect x="-80" y="60" width="3" height="20" fill="#ff6600" opacity="0.8"/>
    
    <rect x="60" y="77" width="20" height="3" fill="#00d4ff" opacity="0.8"/>
    <rect x="77" y="60" width="3" height="20" fill="#00d4ff" opacity="0.8"/>
  </g>
  
  <!-- Glow Effect -->
  <rect width="256" height="256" fill="none" stroke="url(#iconGradient)" stroke-width="2" rx="32" opacity="0.6"/>
</svg> 